<svg xmlns="http://www.w3.org/2000/svg" viewBox="0 0 130.73 130.76"><title>Ресурс 17</title><g id="Слой_2" data-name="Слой 2"><g id="Слой_1-2" data-name="Слой 1"><path d="M84.19,67.46a2.83,2.83,0,0,1,0-4.17l44.76-44.79a6.43,6.43,0,0,0,1.79-4.17,6.44,6.44,0,0,0-1.79-4.2l-8.36-8.36A6.43,6.43,0,0,0,116.42,0a5.4,5.4,0,0,0-4.17,1.79L67.46,46.57a2.91,2.91,0,0,1-4.2,0L18.51,1.79A6.55,6.55,0,0,0,14.32,0a6.43,6.43,0,0,0-4.17,1.79L1.79,10.15A6.44,6.44,0,0,0,0,14.34a6.43,6.43,0,0,0,1.79,4.17L46.57,63.3a2.88,2.88,0,0,1,0,4.17L1.79,112.25A6.43,6.43,0,0,0,0,116.42a6.5,6.5,0,0,0,1.79,4.2L10.15,129a6.43,6.43,0,0,0,4.17,1.79,6.55,6.55,0,0,0,4.2-1.79L63.27,84.19a2.91,2.91,0,0,1,4.2,0L112.25,129a5.75,5.75,0,0,0,8.33,0l8.36-8.36a6.5,6.5,0,0,0,1.79-4.2,6.43,6.43,0,0,0-1.79-4.17Z" fill="#333" fill-rule="evenodd"/></g></g></svg>