<?xml version="1.0" encoding="UTF-8"?>
<!DOCTYPE svg PUBLIC "-//W3C//DTD SVG 1.1//EN" "http://www.w3.org/Graphics/SVG/1.1/DTD/svg11.dtd">
<!-- Creator: CorelDRAW X7 -->
<svg xmlns="http://www.w3.org/2000/svg" xml:space="preserve" width="20.0959mm" height="28.5808mm" version="1.1" style="shape-rendering:geometricPrecision; text-rendering:geometricPrecision; image-rendering:optimizeQuality; fill-rule:evenodd; clip-rule:evenodd"
viewBox="0 0 1413 2009"
 xmlns:xlink="http://www.w3.org/1999/xlink">
 <defs>
  <style type="text/css">
   <![CDATA[
    .fil0 {fill:url(#id0)}
   ]]>
  </style>
  <linearGradient id="id0" gradientUnits="userSpaceOnUse" x1="1268.21" y1="992.641" x2="-43.1204" y2="485.431">
   <stop offset="0" style="stop-opacity:1; stop-color:#FF4400"/>
   <stop offset="1" style="stop-opacity:1; stop-color:#FF7B00"/>
  </linearGradient>
 </defs>
 <g id="Слой_x0020_1">
  <metadata id="CorelCorpID_0Corel-Layer"/>
  <path class="fil0" d="M706 353c-194,0 -353,159 -353,353 0,194 156,354 353,354 200,0 354,-162 354,-354 0,-194 -159,-353 -354,-353zm0 -353c-389,0 -706,317 -706,706 0,132 36,260 105,372l561 903c11,18 30,28 50,28 0,0 0,0 1,0 20,0 39,-11 50,-28l546 -913c65,-109 100,-234 100,-362 0,-389 -317,-706 -707,-706z"/>
 </g>
</svg>
