<svg xmlns="http://www.w3.org/2000/svg" viewBox="0 0 143.35 159.87"><title>Ресурс 9</title><g id="Слой_2" data-name="Слой 2"><g id="Слой_1-2" data-name="Слой 1"><rect x="88.98" y="32.68" width="35.06" height="15.34" fill="#00bdb0"/><rect x="19.56" y="32.68" width="31.1" height="5.87" fill="#00bdb0"/><rect x="19.56" y="44.62" width="22.42" height="5.87" fill="#00bdb0"/><polygon points="0 13.1 0 99.95 28.23 99.95 28.23 88.61 11.34 88.61 11.34 24.43 132.01 24.43 132.01 88.61 116.31 88.61 116.31 99.95 143.35 99.95 143.35 13.1 0 13.1" fill="#00bdb0"/><rect x="97.43" width="12.08" height="9.16" fill="#f40"/><rect x="34.81" width="12.08" height="9.16" fill="#f40"/><path d="M118.1,121.67a9.56,9.56,0,0,0-7.66-15.31H95.09a56.67,56.67,0,0,0,2-13.52V90A12.47,12.47,0,0,0,84.64,77.53H81.78A3.9,3.9,0,0,0,78,80.46L76.48,86.7c-1.92,7.69-8,17-14.79,19.18a9.66,9.66,0,0,0-8.55-5.25H36a3.86,3.86,0,0,0-3.85,3.86V156A3.86,3.86,0,0,0,36,159.87H53.15a9.52,9.52,0,0,0,8.25-4.66l9,3a32.15,32.15,0,0,0,10.27,1.67h24a9.59,9.59,0,0,0,9.58-9.58,9.32,9.32,0,0,0-.35-2.52,9.56,9.56,0,0,0,4.16-14.65,9.5,9.5,0,0,0,0-11.45Zm-17.24,22.9a3.86,3.86,0,0,0,3.85,3.86,1.9,1.9,0,0,1,1.87,1.87,1.87,1.87,0,0,1-1.87,1.87h-24a24.68,24.68,0,0,1-7.82-1.25l-10.15-3.37V113.62c4.42-1.06,8.77-4,12.63-8.52A42.87,42.87,0,0,0,84,88.57l.83-3.33A4.74,4.74,0,0,1,89.38,90v2.86A46.37,46.37,0,0,1,87,106.36H81.78a3.86,3.86,0,0,0,0,7.71h28.66a1.87,1.87,0,1,1,0,3.74h-5.73a3.86,3.86,0,0,0,0,7.71h5.73a1.9,1.9,0,0,1,1.87,1.87,1.87,1.87,0,0,1-1.87,1.87h-5.73a3.85,3.85,0,1,0,0,7.71h5.73a1.9,1.9,0,0,1,1.87,1.87,1.87,1.87,0,0,1-1.87,1.87h-5.73A3.86,3.86,0,0,0,100.86,144.57Zm-47.71,7.6H39.83V108.34H53.15A1.87,1.87,0,0,1,55,110.21v40.08A1.87,1.87,0,0,1,53.15,152.16Z" fill="#f40"/><path d="M50.29,144.57a2.86,2.86,0,1,0-2.86,2.86,2.87,2.87,0,0,0,2.86-2.86Z" fill="#00bdb0" fill-rule="evenodd"/><path d="M85.81,60.15A3.91,3.91,0,0,0,81.95,64v5.92a3.86,3.86,0,1,0,7.71,0V64A3.86,3.86,0,0,0,85.81,60.15Z" fill="#f40"/><path d="M70.32,69a3.86,3.86,0,0,0-5.46,5.46l4.05,4.05a3.82,3.82,0,0,0,2.71,1.12,3.94,3.94,0,0,0,2.75-1.12,3.89,3.89,0,0,0,0-5.45Z" fill="#f40"/><path d="M106.77,69h0a3.89,3.89,0,0,0-5.45,0l-4.05,4.05a3.86,3.86,0,0,0,5.46,5.46l4.06-4.06A3.89,3.89,0,0,0,106.77,69Z" fill="#f40"/></g></g></svg>