<svg xmlns="http://www.w3.org/2000/svg" viewBox="0 0 495.61 128.75"><title>Ресурс 21</title><g id="Слой_2" data-name="Слой 2"><g id="Слой_1-2" data-name="Слой 1"><path d="M44.22,128.18,43.54,15.11C65.06,27,82.6,36.54,101.11,53.6l1.67,75.12Z" fill="#141515" fill-rule="evenodd"/><path d="M49.83,118.49H95.92v3H49.83Zm.2-84V28.35c15.42,8.76,34.64,19.28,45.89,34v2.15C84.81,50,63.41,41.41,50,34.47Zm.17,11.79.09,4.05c16.36,6.35,34,13.21,45.64,27.24V76.14C83.62,60.35,67.78,54,50.2,46.26ZM50.29,65l-.09-4.08c9.16,3.34,18.51,6.55,27.18,11A64,64,0,0,1,95.92,85.24v1.28C84.36,75.29,64.6,69.53,50.29,65Zm-.34,14.68.17-3.71c7.17,1.62,15,3.77,22.62,6.26,8.39,2.72,16.53,6,23.19,11.37v1.22c-13.35-8-31.29-12-46-15.14Zm.17,14.51L50,90.62A269.92,269.92,0,0,1,78.49,96a81.71,81.71,0,0,1,17.43,6.32v1C81.3,98.22,65.28,96,50.12,94.17Zm-.17,14.91.06-3.71c15.28.85,30.87,2.13,45.92,5.3v1.28Z" fill="#fefefe" fill-rule="evenodd"/><path d="M117.1,55.25h20.72V60H124.3V97.26h-7.2Zm32.71,15.31a3.57,3.57,0,0,0-1.87.51,4,4,0,0,0-1.53,1.81,12,12,0,0,0-1,3.6,36.37,36.37,0,0,0-.37,5.78,36.23,36.23,0,0,0,.37,5.75,11.71,11.71,0,0,0,1,3.6,4.08,4.08,0,0,0,1.53,1.84,3.57,3.57,0,0,0,1.87.51,3.67,3.67,0,0,0,1.9-.51,4.47,4.47,0,0,0,1.53-1.84,11.71,11.71,0,0,0,1-3.6,45.33,45.33,0,0,0,0-11.54,12,12,0,0,0-1-3.6,4.36,4.36,0,0,0-1.53-1.81,3.67,3.67,0,0,0-1.9-.51Zm0-3.91a14.37,14.37,0,0,1,5.16.85,8.51,8.51,0,0,1,3.77,2.69A12.31,12.31,0,0,1,161,75a28.08,28.08,0,0,1,.79,7.26,28,28,0,0,1-.79,7.23,12.31,12.31,0,0,1-2.3,4.82A8.8,8.8,0,0,1,155,97a16.6,16.6,0,0,1-10.32,0,8.89,8.89,0,0,1-3.74-2.72,12.74,12.74,0,0,1-2.32-4.82,29.42,29.42,0,0,1-.77-7.23,29.5,29.5,0,0,1,.77-7.26,12.74,12.74,0,0,1,2.32-4.82,8.59,8.59,0,0,1,3.74-2.69,14.37,14.37,0,0,1,5.16-.85Zm25.51,25.82a4.28,4.28,0,0,0,1.33.82,4.77,4.77,0,0,0,2,.37,4.53,4.53,0,0,0,2.13-.51,4.25,4.25,0,0,0,1.7-1.81,11.62,11.62,0,0,0,1.16-3.49,31,31,0,0,0,.4-5.58,30.76,30.76,0,0,0-.4-5.58,11.55,11.55,0,0,0-1.16-3.51,4.25,4.25,0,0,0-1.7-1.81,4.53,4.53,0,0,0-2.13-.51,4.2,4.2,0,0,0-1.9.37,7.23,7.23,0,0,0-1.42.85ZM181,66.64a10,10,0,0,1,4.11.85,7.87,7.87,0,0,1,3.23,2.69,14,14,0,0,1,2.1,4.82,29.5,29.5,0,0,1,.77,7.26,29.42,29.42,0,0,1-.77,7.23,13.54,13.54,0,0,1-2.15,4.82A8.34,8.34,0,0,1,184.9,97a11.89,11.89,0,0,1-4.48.82,9,9,0,0,1-2.83-.43,7.64,7.64,0,0,1-2.27-1.08v12.93h-7.2v-42h5.1l.91,1.81h.31A9.28,9.28,0,0,1,177,67.38a9.64,9.64,0,0,1,4.08-.74Zm27,3.91a3.67,3.67,0,0,0-1.9.51,4,4,0,0,0-1.53,1.81,12,12,0,0,0-1,3.6,36.37,36.37,0,0,0-.37,5.78,36.23,36.23,0,0,0,.37,5.75,11.71,11.71,0,0,0,1,3.6,4.08,4.08,0,0,0,1.53,1.84,3.67,3.67,0,0,0,1.9.51,3.57,3.57,0,0,0,1.87-.51,4.08,4.08,0,0,0,1.53-1.84,11.71,11.71,0,0,0,1-3.6,36.23,36.23,0,0,0,.37-5.75,36.37,36.37,0,0,0-.37-5.78,12,12,0,0,0-1-3.6,4,4,0,0,0-1.53-1.81,3.57,3.57,0,0,0-1.87-.51Zm0-3.91a14.48,14.48,0,0,1,5.16.85A8.59,8.59,0,0,1,217,70.19,12.74,12.74,0,0,1,219.29,75a29.5,29.5,0,0,1,.77,7.26,29.42,29.42,0,0,1-.77,7.23A12.74,12.74,0,0,1,217,94.31,8.89,8.89,0,0,1,213.22,97a16.69,16.69,0,0,1-10.35,0,8.89,8.89,0,0,1-3.74-2.72,12.31,12.31,0,0,1-2.3-4.82,28,28,0,0,1-.79-7.23,28.08,28.08,0,0,1,.79-7.26,12.31,12.31,0,0,1,2.3-4.82,8.59,8.59,0,0,1,3.74-2.69,14.53,14.53,0,0,1,5.19-.85Zm44.11,26.11V106h-4.51a17.38,17.38,0,0,1-1.53-3.77,27.45,27.45,0,0,1-.85-4.93H229.35a25.15,25.15,0,0,1-.85,4.93A17.38,17.38,0,0,1,227,106h-4.51V92.75h2.69a14.58,14.58,0,0,0,1.73-3,15.2,15.2,0,0,0,1-5.07l.91-17.4h19.81V92.75Zm-16.44-21-.65,12.9a15.86,15.86,0,0,1-1,5.07,13.41,13.41,0,0,1-1.73,3h9v-21Z" fill="#141515"/><path d="M287.89,80.45a8.19,8.19,0,0,0,3-.51A4.85,4.85,0,0,0,293,78.21a9.58,9.58,0,0,0,1.33-3.29,27.07,27.07,0,0,0,.43-5.27,25.3,25.3,0,0,0-.43-5.07,9.08,9.08,0,0,0-1.33-3.2,5,5,0,0,0-2.15-1.7,8.19,8.19,0,0,0-3-.51h-3.32V80.45Zm-3.32,16.81h-7.2V55.84a32.52,32.52,0,0,1,4.68-.94,56.66,56.66,0,0,1,5.84-.26,22.06,22.06,0,0,1,6.38.82,10,10,0,0,1,4.39,2.66,11,11,0,0,1,2.52,4.65,25.4,25.4,0,0,1,.82,6.86,29.13,29.13,0,0,1-.79,7.23,12.11,12.11,0,0,1-2.35,4.85A8.75,8.75,0,0,1,295,84.42a15.4,15.4,0,0,1-5.36.85c-.23,0-.57,0-1-.06s-.85-.09-1.33-.17l-1.47-.17a11.69,11.69,0,0,1-1.3-.2Zm44.73-12.9H313.71c0,3.46.6,5.87,1.81,7.23s3.12,2.07,5.67,2.07h6.6v3a21.24,21.24,0,0,1-3.46.85,26.3,26.3,0,0,1-4.34.37,19.15,19.15,0,0,1-6-.85,9.68,9.68,0,0,1-4.2-2.69,11.87,11.87,0,0,1-2.47-4.85,27.89,27.89,0,0,1-.82-7.23,29.3,29.3,0,0,1,.79-7.23,13.24,13.24,0,0,1,2.21-4.85,8.55,8.55,0,0,1,3.57-2.69,14.16,14.16,0,0,1,9.67,0,8.55,8.55,0,0,1,3.57,2.69A13.74,13.74,0,0,1,328.54,75a29.42,29.42,0,0,1,.77,7.23Zm-7.2-4.2a27.9,27.9,0,0,0-.34-4.82,11,11,0,0,0-.85-2.92A3.12,3.12,0,0,0,319.58,71a3.73,3.73,0,0,0-1.67-.4,3.94,3.94,0,0,0-1.7.4,3.08,3.08,0,0,0-1.3,1.47,10.88,10.88,0,0,0-.88,2.92,28.29,28.29,0,0,0-.31,4.82Zm27.27,1.3a7.06,7.06,0,0,1,3.06,1.64,7.65,7.65,0,0,1,2.1,3.94l1.19,4.82a3.4,3.4,0,0,0,1.13,1.64,3.67,3.67,0,0,0,2.47.77v3a5.44,5.44,0,0,1-1.13.31,11.54,11.54,0,0,1-2.78.31,6.49,6.49,0,0,1-6.89-5.1L347,87.05a5.17,5.17,0,0,0-1.3-2.41,2.69,2.69,0,0,0-2-.88h-.88V97.26h-7.2v-30h7.2v12h.88a1.72,1.72,0,0,0,1.28-.62A9.87,9.87,0,0,0,346.42,76l1.79-4.51a8.53,8.53,0,0,1,2.41-3.54,6.29,6.29,0,0,1,4.2-1.28,8.51,8.51,0,0,1,1.5.11,12.18,12.18,0,0,1,1.28.2l1.13.31v3a3.59,3.59,0,0,0-2.3.6,3.14,3.14,0,0,0-1,1.22L353.91,76a10.86,10.86,0,0,1-2.07,3.71,5.08,5.08,0,0,1-2.47,1.56Zm36.68-14.2v30h-7.23V71.74h-6.24l-1,15.93c-.2,3.43-1,6-2.49,7.68a6.79,6.79,0,0,1-5.3,2.52,10.49,10.49,0,0,1-2.69-.31c-.77-.2-1.16-.31-1.22-.31v-3a4,4,0,0,0,2.92-1.5c.91-1,1.42-2.72,1.59-5.1l1.19-20.41Zm21.29,15.59h-3.29a5.3,5.3,0,0,0-1.59.26A3.43,3.43,0,0,0,401,84a5,5,0,0,0-1,1.7,6.87,6.87,0,0,0-.43,2.61,7.08,7.08,0,0,0,.43,2.61,4.83,4.83,0,0,0,1,1.67,3.5,3.5,0,0,0,1.45.88,5.83,5.83,0,0,0,3.57-.11,4.33,4.33,0,0,0,1.3-.85Zm-5.7,15a16.29,16.29,0,0,1-3.6-.4A7.06,7.06,0,0,1,395.09,96a7.65,7.65,0,0,1-2-2.95,13.39,13.39,0,0,1-.74-4.79,13.56,13.56,0,0,1,.74-4.82,7.27,7.27,0,0,1,2.07-2.92,7.18,7.18,0,0,1,3.15-1.47,18.93,18.93,0,0,1,3.94-.4,20.81,20.81,0,0,1,2.69.17c.85.14,1.67.26,2.41.43V76.85c0-2.38-.54-4-1.67-4.79A7.85,7.85,0,0,0,401,70.87h-6v-3a24.72,24.72,0,0,1,7.2-1.22,29.74,29.74,0,0,1,5.36.43,9.53,9.53,0,0,1,3.83,1.53,6.59,6.59,0,0,1,2.35,3.12,14.67,14.67,0,0,1,.79,5.13V97.26h-5.13l-.88-1.79h-.31a9.25,9.25,0,0,1-2.52,1.64,9.36,9.36,0,0,1-4.08.77Zm33.62-5.1-5.33-14.43h-.26l-1.3,18.91h-6.92l2.1-30h7.82l6.77,18.28h.23l6.8-18.28H453l2.1,30h-6.89l-1.33-18.91h-.26l-5.33,14.43ZM494.7,67.27v30h-7.2v-30Zm-25.51,11.4q1.15-.26,2.55-.43a21.36,21.36,0,0,1,2.55-.17,17.39,17.39,0,0,1,4,.43A7,7,0,0,1,483.45,83a14.48,14.48,0,0,1,.74,5,13.67,13.67,0,0,1-.77,5,7,7,0,0,1-2.27,3,9,9,0,0,1-3.66,1.5,26.3,26.3,0,0,1-5,.43,55.2,55.2,0,0,1-5.81-.28,25.32,25.32,0,0,1-4.68-.94V67.27h7.2Zm3.29,15a5.16,5.16,0,0,0,1.59-.26,3.89,3.89,0,0,0,1.45-.91,4.85,4.85,0,0,0,1-1.73A7.9,7.9,0,0,0,477,88a7,7,0,0,0-.43-2.61,4.83,4.83,0,0,0-1-1.67,3.5,3.5,0,0,0-1.45-.88,5.12,5.12,0,0,0-1.59-.23h-3.29V93.66Z" fill="#ff4e00"/><path d="M119.54,122.2a2.22,2.22,0,0,0,.51.31,1.73,1.73,0,0,0,.79.14,1.68,1.68,0,0,0,.82-.2,1.65,1.65,0,0,0,.68-.71,5.15,5.15,0,0,0,.43-1.36,11.54,11.54,0,0,0,.17-2.18,11.75,11.75,0,0,0-.17-2.18,5.53,5.53,0,0,0-.43-1.36,1.83,1.83,0,0,0-.68-.71,2.06,2.06,0,0,0-.82-.2,1.79,1.79,0,0,0-.74.14,3.75,3.75,0,0,0-.57.34Zm2.24-10.09a3.71,3.71,0,0,1,1.59.34,3,3,0,0,1,1.28,1,5.63,5.63,0,0,1,.82,1.9,11.41,11.41,0,0,1,.28,2.81,11.66,11.66,0,0,1-.28,2.83,5.2,5.2,0,0,1-.85,1.87,3.46,3.46,0,0,1-1.33,1.08,4.86,4.86,0,0,1-1.76.31,3.48,3.48,0,0,1-1.11-.17,3.62,3.62,0,0,1-.88-.43v5h-2.81V112.37h2l.37.68h.11a4,4,0,0,1,1-.62,3.59,3.59,0,0,1,1.59-.31ZM136.52,119h-6.09a4.25,4.25,0,0,0,.74,2.83,2.73,2.73,0,0,0,2.21.79h2.58v1.19a9.84,9.84,0,0,1-1.36.31,10.86,10.86,0,0,1-1.7.14,8.3,8.3,0,0,1-2.35-.31,3.88,3.88,0,0,1-1.64-1.08,4.86,4.86,0,0,1-1-1.87,11.53,11.53,0,0,1-.31-2.83,11.28,11.28,0,0,1,.31-2.81,4.73,4.73,0,0,1,.88-1.9,3.19,3.19,0,0,1,1.39-1,4.79,4.79,0,0,1,1.87-.34,5,5,0,0,1,1.9.34,3.36,3.36,0,0,1,1.39,1,5.64,5.64,0,0,1,.88,1.9,11.41,11.41,0,0,1,.28,2.81Zm-2.81-1.64a11.35,11.35,0,0,0-.11-1.87,4.17,4.17,0,0,0-.34-1.13,1.24,1.24,0,0,0-.54-.6,1.57,1.57,0,0,0-.65-.14,1.68,1.68,0,0,0-.65.14,1.35,1.35,0,0,0-.51.6,4.17,4.17,0,0,0-.34,1.13,10.93,10.93,0,0,0-.14,1.87Zm10.63.54a2.43,2.43,0,0,1,1.19.62,2.74,2.74,0,0,1,.82,1.53l.48,1.87a1.11,1.11,0,0,0,.45.65,1.38,1.38,0,0,0,.94.31v1.16a4.38,4.38,0,0,1-.43.11,4.19,4.19,0,0,1-1.08.11,2.77,2.77,0,0,1-1.81-.54,2.72,2.72,0,0,1-.88-1.45l-.6-2.24a2.12,2.12,0,0,0-.51-.94,1.06,1.06,0,0,0-.77-.34h-.37v5.27H139V112.37h2.81V117h.37a.68.68,0,0,0,.48-.26,4.49,4.49,0,0,0,.57-1l.71-1.73a3.17,3.17,0,0,1,.94-1.39,2.35,2.35,0,0,1,1.62-.51,3.54,3.54,0,0,1,.6.06,1.13,1.13,0,0,1,.48.09,3.47,3.47,0,0,1,.45.11v1.16a1.42,1.42,0,0,0-.88.23,1,1,0,0,0-.4.48l-.6,1.5a4.63,4.63,0,0,1-.79,1.47,2,2,0,0,1-1,.6Zm14.31-5.56v11.71h-2.81v-9.95h-2.44l-.37,6.21a4.94,4.94,0,0,1-1,3,2.65,2.65,0,0,1-2.1,1,4,4,0,0,1-1-.11,4.11,4.11,0,0,0-.45-.11v-1.16a1.56,1.56,0,0,0,1.13-.6,3.55,3.55,0,0,0,.62-2l.45-8Zm8.31,6.09h-1.28a2.53,2.53,0,0,0-.62.09,1.32,1.32,0,0,0-.57.34,2.34,2.34,0,0,0-.4.65,3.15,3.15,0,0,0,0,2,2.84,2.84,0,0,0,.4.65,1.32,1.32,0,0,0,.57.34,2.53,2.53,0,0,0,.62.09,1.54,1.54,0,0,0,.77-.14,1.43,1.43,0,0,0,.51-.31Zm-2.21,5.84a7.5,7.5,0,0,1-1.42-.14,2.73,2.73,0,0,1-1.13-.6,2.63,2.63,0,0,1-.79-1.13,6.32,6.32,0,0,1,0-3.74,3,3,0,0,1,.82-1.16,2.85,2.85,0,0,1,1.22-.57,8.85,8.85,0,0,1,2.58-.09l.94.17v-.94a2.13,2.13,0,0,0-.65-1.87,3,3,0,0,0-1.79-.48h-2.35v-1.16c.37-.11.79-.23,1.33-.34a9.23,9.23,0,0,1,1.47-.14,11.41,11.41,0,0,1,2.1.17,4,4,0,0,1,1.5.6,2.67,2.67,0,0,1,.91,1.22,5.77,5.77,0,0,1,.31,2v8h-2l-.34-.71h-.11a4.63,4.63,0,0,1-1,.65,3.62,3.62,0,0,1-1.59.28Zm13.12-2-2.1-5.61h-.09l-.51,7.37h-2.69l.82-11.71h3l2.64,7.14h.11l2.64-7.14h3l.82,11.71h-2.69l-.51-7.37h-.09l-2.1,5.61Zm13.24,1.76h-2.83V112.37h2.83v4.9h3.15v-4.9h2.81v11.71h-2.81v-5h-3.15Zm13.1-10.43a1.37,1.37,0,0,0-.74.2,1.69,1.69,0,0,0-.6.71,4.76,4.76,0,0,0-.4,1.42,15.9,15.9,0,0,0-.14,2.24,16.35,16.35,0,0,0,.14,2.27,4.55,4.55,0,0,0,.4,1.39,1.53,1.53,0,0,0,.6.71,1.37,1.37,0,0,0,.74.2,1.31,1.31,0,0,0,.74-.2,1.53,1.53,0,0,0,.6-.71,4.55,4.55,0,0,0,.4-1.39,12.87,12.87,0,0,0,.14-2.27,12.53,12.53,0,0,0-.14-2.24,4.76,4.76,0,0,0-.4-1.42,1.69,1.69,0,0,0-.6-.71,1.31,1.31,0,0,0-.74-.2Zm0-1.53a5.44,5.44,0,0,1,2,.34,3.44,3.44,0,0,1,1.47,1,4.75,4.75,0,0,1,.91,1.9,11.28,11.28,0,0,1,.31,2.81,11.53,11.53,0,0,1-.31,2.83,4.81,4.81,0,0,1-.91,1.87,3.5,3.5,0,0,1-1.47,1.08,6.13,6.13,0,0,1-2,.31,6.25,6.25,0,0,1-2-.31,3.6,3.6,0,0,1-1.45-1.08,4.81,4.81,0,0,1-.91-1.87,11.53,11.53,0,0,1-.31-2.83,11.28,11.28,0,0,1,.31-2.81,4.75,4.75,0,0,1,.91-1.9,3.53,3.53,0,0,1,1.45-1,5.55,5.55,0,0,1,2-.34Zm6.32,4H218V118h-7.51Zm12.56,8h-2.83V112.37H229v11.71h-2.81v-9.95h-3.15Zm11.82-1.87a1.43,1.43,0,0,0,.51.31,1.68,1.68,0,0,0,.77.14,1.79,1.79,0,0,0,.85-.2,1.46,1.46,0,0,0,.65-.71,4.23,4.23,0,0,0,.45-1.36,11.54,11.54,0,0,0,.17-2.18,11.75,11.75,0,0,0-.17-2.18,4.49,4.49,0,0,0-.45-1.36A1.6,1.6,0,0,0,237,114a2.2,2.2,0,0,0-.85-.2,1.9,1.9,0,0,0-.74.14,3.47,3.47,0,0,0-.54.34Zm2.21-10.09a3.75,3.75,0,0,1,1.62.34,3.43,3.43,0,0,1,1.28,1,5.11,5.11,0,0,1,.79,1.9,11.28,11.28,0,0,1,.31,2.81,11.53,11.53,0,0,1-.31,2.83,4.74,4.74,0,0,1-.82,1.87,3.46,3.46,0,0,1-1.33,1.08,5,5,0,0,1-1.76.31,3.48,3.48,0,0,1-1.11-.17,3.62,3.62,0,0,1-.88-.43v5H232.1V112.37h2l.34.68h.11a4.6,4.6,0,0,1,1-.62,3.59,3.59,0,0,1,1.59-.31Zm10.54,1.53a1.37,1.37,0,0,0-.74.2,1.69,1.69,0,0,0-.6.71,4.76,4.76,0,0,0-.4,1.42,15.9,15.9,0,0,0-.14,2.24,16.35,16.35,0,0,0,.14,2.27,4.55,4.55,0,0,0,.4,1.39,1.53,1.53,0,0,0,.6.71,1.47,1.47,0,0,0,1.47,0,1.53,1.53,0,0,0,.6-.71,4.55,4.55,0,0,0,.4-1.39,12.87,12.87,0,0,0,.14-2.27,12.53,12.53,0,0,0-.14-2.24,4.76,4.76,0,0,0-.4-1.42,1.69,1.69,0,0,0-.6-.71,1.37,1.37,0,0,0-.74-.2Zm0-1.53a5.44,5.44,0,0,1,2,.34,3.44,3.44,0,0,1,1.47,1,5.16,5.16,0,0,1,.91,1.9,11.41,11.41,0,0,1,.28,2.81,11.66,11.66,0,0,1-.28,2.83,5.24,5.24,0,0,1-.91,1.87,3.5,3.5,0,0,1-1.47,1.08,6.65,6.65,0,0,1-4,0,3.68,3.68,0,0,1-1.47-1.08,4.78,4.78,0,0,1-.88-1.87,10.3,10.3,0,0,1-.31-2.83,10.09,10.09,0,0,1,.31-2.81,4.73,4.73,0,0,1,.88-1.9,3.62,3.62,0,0,1,1.47-1,5.44,5.44,0,0,1,2-.34ZM261,116.7h-.11l-3.29,7.37h-2.81V112.37h2.69v7.14h.11l3.06-7.14h3v11.71H261Zm12.9,4.08a3.83,3.83,0,0,1-.34,1.73,2.31,2.31,0,0,1-.94,1.08,4.5,4.5,0,0,1-1.64.57,18.72,18.72,0,0,1-2.35.14,10.86,10.86,0,0,1-1.7-.14,9.84,9.84,0,0,1-1.36-.31v-1.19h3.06a3.15,3.15,0,0,0,1.7-.43,1.72,1.72,0,0,0,.62-1.56,1.74,1.74,0,0,0-.57-1.47,2.35,2.35,0,0,0-1.3-.4h-2v-1.64h1.76a2.26,2.26,0,0,0,1.28-.4,1.49,1.49,0,0,0,.6-1.36,1.38,1.38,0,0,0-.65-1.28,3.6,3.6,0,0,0-1.7-.37h-2.55v-1.16a12.71,12.71,0,0,1,1.33-.34,11.47,11.47,0,0,1,3.77,0,3.76,3.76,0,0,1,1.5.51,2.35,2.35,0,0,1,.94,1,3.52,3.52,0,0,1,.28,1.53,2.91,2.91,0,0,1-.17,1,2.09,2.09,0,0,1-.48.71,2.29,2.29,0,0,1-.68.48c-.26.11-.51.2-.77.28v.11a3.08,3.08,0,0,1,.79.31,3,3,0,0,1,.77.57,2.63,2.63,0,0,1,.57.85,2.79,2.79,0,0,1,.23,1.13Zm6.55,1.87a3.52,3.52,0,0,0,.77-.09,1.35,1.35,0,0,0,.62-.34,1.29,1.29,0,0,0,.43-.62,2.3,2.3,0,0,0,.17-.94,1.68,1.68,0,0,0-.6-1.47,2.5,2.5,0,0,0-1.39-.4H279v3.86Zm-1.42-8.9v3.4h1.19a2.36,2.36,0,0,0,.62-.09,1.39,1.39,0,0,0,.57-.31,1.11,1.11,0,0,0,.4-.48,1.53,1.53,0,0,0,.17-.77,1.85,1.85,0,0,0-.17-.82,2,2,0,0,0-.43-.54,1.23,1.23,0,0,0-.54-.28,1.71,1.71,0,0,0-.62-.11Zm-2.81-1.16a13.72,13.72,0,0,1,1.81-.37c.62-.06,1.36-.11,2.18-.11a10.67,10.67,0,0,1,2,.17,4.14,4.14,0,0,1,1.45.51,2.43,2.43,0,0,1,.91,1,3.77,3.77,0,0,1,.31,1.59,2.44,2.44,0,0,1-.17,1,2.54,2.54,0,0,1-.45.71,3.18,3.18,0,0,1-.62.45c-.23.11-.43.2-.62.28v.11a3.08,3.08,0,0,1,.79.31,3,3,0,0,1,.77.57,3.18,3.18,0,0,1,.57.85,2.8,2.8,0,0,1,.2,1.13,4.32,4.32,0,0,1-.28,1.73,2.31,2.31,0,0,1-.94,1.08,3.92,3.92,0,0,1-1.53.57,15.82,15.82,0,0,1-2.15.14,18.35,18.35,0,0,1-2.35-.11,9.93,9.93,0,0,1-1.87-.34Zm15.59,1a1.31,1.31,0,0,0-.74.2,1.69,1.69,0,0,0-.6.71,4.76,4.76,0,0,0-.4,1.42,12.53,12.53,0,0,0-.14,2.24,12.87,12.87,0,0,0,.14,2.27,4.55,4.55,0,0,0,.4,1.39,1.53,1.53,0,0,0,.6.71,1.31,1.31,0,0,0,.74.2,1.37,1.37,0,0,0,.74-.2,1.53,1.53,0,0,0,.6-.71,4.55,4.55,0,0,0,.4-1.39,16.34,16.34,0,0,0,.14-2.27,15.9,15.9,0,0,0-.14-2.24,4.76,4.76,0,0,0-.4-1.42,1.69,1.69,0,0,0-.6-.71,1.37,1.37,0,0,0-.74-.2Zm0-1.53a5.55,5.55,0,0,1,2,.34,3.53,3.53,0,0,1,1.45,1,4.75,4.75,0,0,1,.91,1.9,11.28,11.28,0,0,1,.31,2.81,11.53,11.53,0,0,1-.31,2.83,4.81,4.81,0,0,1-.91,1.87,3.6,3.6,0,0,1-1.45,1.08,6.25,6.25,0,0,1-2,.31,6.13,6.13,0,0,1-2-.31,3.5,3.5,0,0,1-1.47-1.08,4.81,4.81,0,0,1-.91-1.87,11.53,11.53,0,0,1-.31-2.83,11.28,11.28,0,0,1,.31-2.81,4.75,4.75,0,0,1,.91-1.9,3.44,3.44,0,0,1,1.47-1,5.44,5.44,0,0,1,2-.34ZM309,122.31v5.16h-1.76a8,8,0,0,1-.6-1.47,9.74,9.74,0,0,1-.34-1.93h-6.21a9.74,9.74,0,0,1-.34,1.93,8,8,0,0,1-.6,1.47h-1.76v-5.16h1a7.4,7.4,0,0,0,.68-1.19,5.89,5.89,0,0,0,.37-2l.37-6.77h7.71v9.95Zm-6.41-8.19-.26,5a6.59,6.59,0,0,1-.4,2,4.7,4.7,0,0,1-.68,1.19h3.51v-8.19Zm13.1-.37a2.54,2.54,0,0,0-1,.2,1.76,1.76,0,0,0-.74.71,3.81,3.81,0,0,0-.48,1.36,11.75,11.75,0,0,0-.17,2.18,11.54,11.54,0,0,0,.17,2.18,3.6,3.6,0,0,0,.51,1.36,1.71,1.71,0,0,0,.79.71,2.84,2.84,0,0,0,1.11.2h2.58v1.19a9.84,9.84,0,0,1-1.36.31,10.86,10.86,0,0,1-1.7.14,7,7,0,0,1-2.15-.31,3.87,3.87,0,0,1-1.53-1.08,4.81,4.81,0,0,1-.91-1.87,10.3,10.3,0,0,1-.31-2.83,10.09,10.09,0,0,1,.31-2.81,4.73,4.73,0,0,1,.88-1.9,3.62,3.62,0,0,1,1.47-1,5.44,5.44,0,0,1,2-.34,10.87,10.87,0,0,1,1.7.14,12.71,12.71,0,0,1,1.33.34v1.16Zm12-1.39v1.76h-2.92v9.95H322v-9.95H319.1v-1.76Zm6,10.29a3.52,3.52,0,0,0,.77-.09,1.35,1.35,0,0,0,.62-.34,1.51,1.51,0,0,0,.43-.62,2.3,2.3,0,0,0,.17-.94,1.68,1.68,0,0,0-.6-1.47,2.5,2.5,0,0,0-1.39-.4h-1.42v3.86Zm-1.42-8.9v3.4h1.19a2.36,2.36,0,0,0,.62-.09,1.39,1.39,0,0,0,.57-.31,1.11,1.11,0,0,0,.4-.48,1.53,1.53,0,0,0,.17-.77,1.85,1.85,0,0,0-.17-.82,2,2,0,0,0-.43-.54,1.19,1.19,0,0,0-.57-.28,1.48,1.48,0,0,0-.6-.11Zm-2.81-1.16a12.86,12.86,0,0,1,1.81-.37c.62-.06,1.33-.11,2.18-.11a10.67,10.67,0,0,1,2,.17,4.14,4.14,0,0,1,1.45.51,2.43,2.43,0,0,1,.91,1,3.77,3.77,0,0,1,.31,1.59,2.44,2.44,0,0,1-.17,1,3.39,3.39,0,0,1-.45.71,3.18,3.18,0,0,1-.62.45c-.23.11-.43.2-.62.28v.11a3.07,3.07,0,0,1,.79.31,3,3,0,0,1,.77.57,2.57,2.57,0,0,1,.54.85,2.39,2.39,0,0,1,.23,1.13,4.32,4.32,0,0,1-.28,1.73,2.48,2.48,0,0,1-.94,1.08,4.06,4.06,0,0,1-1.56.57,15.38,15.38,0,0,1-2.13.14,19.12,19.12,0,0,1-2.38-.11,10.05,10.05,0,0,1-1.84-.34ZM349.31,119h-6.09a4.25,4.25,0,0,0,.74,2.83,2.77,2.77,0,0,0,2.21.79h2.58v1.19a9.84,9.84,0,0,1-1.36.31,10.86,10.86,0,0,1-1.7.14,8.3,8.3,0,0,1-2.35-.31,4.06,4.06,0,0,1-1.64-1.08,4.86,4.86,0,0,1-1-1.87,11.53,11.53,0,0,1-.31-2.83,11.28,11.28,0,0,1,.31-2.81,4.73,4.73,0,0,1,.88-1.9,3.19,3.19,0,0,1,1.39-1,4.89,4.89,0,0,1,1.87-.34,5,5,0,0,1,1.9.34,3.36,3.36,0,0,1,1.39,1,5.64,5.64,0,0,1,.88,1.9,11.41,11.41,0,0,1,.28,2.81Zm-2.81-1.64a11.35,11.35,0,0,0-.11-1.87,4.17,4.17,0,0,0-.34-1.13,1.24,1.24,0,0,0-.54-.6,1.57,1.57,0,0,0-.65-.14,1.68,1.68,0,0,0-.65.14,1.35,1.35,0,0,0-.51.6,4.17,4.17,0,0,0-.34,1.13,10.93,10.93,0,0,0-.14,1.87Zm8.08,6.69h-2.81V112.37h2.81v4.9h3.17v-4.9h2.81v11.71h-2.81v-5h-3.17Zm11.85,0H363.6V112.37h2.83v4.9h3.15v-4.9h2.81v11.71h-2.81v-5h-3.15Zm14.29-5.61h-1.3a2.53,2.53,0,0,0-.62.09,1.32,1.32,0,0,0-.57.34,2.34,2.34,0,0,0-.4.65,3.15,3.15,0,0,0,0,2,2.84,2.84,0,0,0,.4.65,1.32,1.32,0,0,0,.57.34,2.53,2.53,0,0,0,.62.09,1.54,1.54,0,0,0,.77-.14,1.93,1.93,0,0,0,.54-.31Zm-2.24,5.84a7.5,7.5,0,0,1-1.42-.14,2.91,2.91,0,0,1-1.13-.6,2.63,2.63,0,0,1-.79-1.13,6.32,6.32,0,0,1,0-3.74,3,3,0,0,1,.82-1.16,2.85,2.85,0,0,1,1.22-.57,6.54,6.54,0,0,1,1.53-.14,6.33,6.33,0,0,1,1,.06l1,.17v-.94a2.14,2.14,0,0,0-.68-1.87,3,3,0,0,0-1.79-.48H375.9v-1.16c.37-.11.79-.23,1.33-.34a9.23,9.23,0,0,1,1.47-.14,11.41,11.41,0,0,1,2.1.17,4,4,0,0,1,1.5.6,2.67,2.67,0,0,1,.91,1.22,5.77,5.77,0,0,1,.31,2v8h-2l-.34-.71h-.11a4,4,0,0,1-1,.65,3.62,3.62,0,0,1-1.59.28Zm11.93-10.54a1.91,1.91,0,0,0-.68.11,1.26,1.26,0,0,0-.6.34,1.63,1.63,0,0,0-.43.65,2.55,2.55,0,0,0-.17,1,2.3,2.3,0,0,0,.17.94,1.6,1.6,0,0,0,1,1,2.8,2.8,0,0,0,.68.09h1.3v-4.11ZM388.69,119a3.69,3.69,0,0,1-1.11-.26,3.27,3.27,0,0,1-.94-.6,2.63,2.63,0,0,1-.65-1,3.15,3.15,0,0,1-.26-1.3,4.41,4.41,0,0,1,.34-1.87,2.61,2.61,0,0,1,1-1.16,3.28,3.28,0,0,1,1.47-.57,9.86,9.86,0,0,1,1.9-.17c.91,0,1.67.06,2.3.11a12.85,12.85,0,0,1,1.81.37v11.48h-2.81v-4.45h-.45a1.38,1.38,0,0,0-1.3,1l-.71,1.76a3.59,3.59,0,0,1-.91,1.39,2.33,2.33,0,0,1-1.56.48,4.19,4.19,0,0,1-1.08-.11,4.38,4.38,0,0,1-.43-.11v-1.16a1.24,1.24,0,0,0,1.28-.71l.6-1.53a3.13,3.13,0,0,1,.65-1.13,2.16,2.16,0,0,1,.88-.45Zm20.1-1.08a2.43,2.43,0,0,1,1.19.62,2.74,2.74,0,0,1,.82,1.53l.48,1.87a1.11,1.11,0,0,0,.45.65,1.38,1.38,0,0,0,.94.31v1.16a4.38,4.38,0,0,1-.43.11,4.19,4.19,0,0,1-1.08.11,2.77,2.77,0,0,1-1.81-.54,2.72,2.72,0,0,1-.88-1.45l-.6-2.24a2.12,2.12,0,0,0-.51-.94,1.06,1.06,0,0,0-.77-.34h-.37v5.27h-2.81V112.37h2.81V117h.37a.63.63,0,0,0,.48-.26,3.62,3.62,0,0,0,.57-1l.71-1.73a3.17,3.17,0,0,1,.94-1.39,2.38,2.38,0,0,1,1.64-.51,3.49,3.49,0,0,1,.57.06,1.37,1.37,0,0,1,.51.09,4.38,4.38,0,0,1,.43.11v1.16a1.42,1.42,0,0,0-.88.23,1.25,1.25,0,0,0-.4.48l-.6,1.5a4.63,4.63,0,0,1-.79,1.47,2,2,0,0,1-1,.6Zm9.52-4.28a1.31,1.31,0,0,0-.74.2,1.69,1.69,0,0,0-.6.71,4.76,4.76,0,0,0-.4,1.42,12.53,12.53,0,0,0-.14,2.24,12.87,12.87,0,0,0,.14,2.27,4.55,4.55,0,0,0,.4,1.39,1.53,1.53,0,0,0,.6.71,1.31,1.31,0,0,0,.74.2,1.37,1.37,0,0,0,.74-.2,1.53,1.53,0,0,0,.6-.71,4.55,4.55,0,0,0,.4-1.39,16.35,16.35,0,0,0,.14-2.27A15.9,15.9,0,0,0,420,116a4.76,4.76,0,0,0-.4-1.42,1.69,1.69,0,0,0-.6-.71,1.37,1.37,0,0,0-.74-.2Zm0-1.53a5.55,5.55,0,0,1,2,.34,3.82,3.82,0,0,1,1.47,1,4.73,4.73,0,0,1,.88,1.9,10.09,10.09,0,0,1,.31,2.81,10.3,10.3,0,0,1-.31,2.83,4.78,4.78,0,0,1-.88,1.87,3.89,3.89,0,0,1-1.47,1.08,6.25,6.25,0,0,1-2,.31,6.13,6.13,0,0,1-2-.31,3.5,3.5,0,0,1-1.47-1.08,4.81,4.81,0,0,1-.91-1.87,11.66,11.66,0,0,1-.28-2.83,11.41,11.41,0,0,1,.28-2.81,4.75,4.75,0,0,1,.91-1.9,3.44,3.44,0,0,1,1.47-1,5.44,5.44,0,0,1,2-.34Zm12.19,10.2-2.1-5.61h-.09l-.54,7.37h-2.69l.82-11.71H429l2.64,7.14h.09l2.66-7.14h3l.82,11.71h-2.69L435,116.7h-.09l-2.1,5.61Zm13.21,1.76H440.9V112.37h8.79v11.71h-2.81v-9.95h-3.17Z" fill="#141515"/><path d="M458,118.46h-1.28a2.53,2.53,0,0,0-.62.09,1.32,1.32,0,0,0-.57.34,1.82,1.82,0,0,0-.4.65,3.15,3.15,0,0,0,0,2,2.11,2.11,0,0,0,.4.65,1.32,1.32,0,0,0,.57.34,2.53,2.53,0,0,0,.62.09,1.61,1.61,0,0,0,.77-.14,1.43,1.43,0,0,0,.51-.31Zm-2.21,5.84a7.5,7.5,0,0,1-1.42-.14,2.73,2.73,0,0,1-1.13-.6,2.63,2.63,0,0,1-.79-1.13,6.32,6.32,0,0,1,0-3.74,3,3,0,0,1,.82-1.16,2.85,2.85,0,0,1,1.22-.57,8.85,8.85,0,0,1,2.58-.09l.94.17v-.94a2.13,2.13,0,0,0-.65-1.87,3,3,0,0,0-1.79-.48H453.2v-1.16c.37-.11.79-.23,1.33-.34a9.23,9.23,0,0,1,1.47-.14,11.41,11.41,0,0,1,2.1.17,4,4,0,0,1,1.5.6,2.67,2.67,0,0,1,.91,1.22,5.77,5.77,0,0,1,.31,2v8h-2l-.34-.71h-.11a4.63,4.63,0,0,1-1,.65,3.62,3.62,0,0,1-1.59.28Zm10.89-.23h-2.81V112.37h2.81v4.9h3.17v-4.9h2.81v11.71h-2.81v-5h-3.17Zm15.22-7.37h-.11l-3.29,7.37h-2.81V112.37h2.69v7.14h.11l3.06-7.14h3v11.71h-2.69Zm9.61-2.95a1.91,1.91,0,0,0-.68.11,1.26,1.26,0,0,0-.6.34,1.63,1.63,0,0,0-.43.65,2.55,2.55,0,0,0-.17,1,2.3,2.3,0,0,0,.17.94,1.6,1.6,0,0,0,1,1,2.8,2.8,0,0,0,.68.09h1.28v-4.11ZM489.77,119a3.5,3.5,0,0,1-1.11-.26,2.65,2.65,0,0,1-.94-.6,2.69,2.69,0,0,1-.68-1,3.69,3.69,0,0,1-.23-1.3,4.41,4.41,0,0,1,.34-1.87,2.75,2.75,0,0,1,.94-1.16,3.56,3.56,0,0,1,1.47-.57,10.16,10.16,0,0,1,1.93-.17c.88,0,1.64.06,2.27.11a13.25,13.25,0,0,1,1.84.37v11.48h-2.83v-4.45h-.43a1.36,1.36,0,0,0-1.3,1l-.71,1.76a3.94,3.94,0,0,1-.91,1.39,2.44,2.44,0,0,1-1.56.48,4.19,4.19,0,0,1-1.08-.11c-.17,0-.31-.09-.45-.11v-1.16a1.52,1.52,0,0,0,.91-.23,2,2,0,0,0,.4-.48l.57-1.53a3.61,3.61,0,0,1,.65-1.13,2.28,2.28,0,0,1,.91-.45Z" fill="#141515"/><path d="M40,71.55l-.26-56.35A175.18,175.18,0,0,0,1.22,0V45.35C16.53,52.67,26.5,59.41,40,71.55Z" fill="#4d4d4d" fill-rule="evenodd"/><path d="M.45,127.56,0,50.09c14.77,8.14,26.76,14.66,39.46,26.36L40.62,128Zm3.86-6.63H35.91v2H4.31Zm.14-57.57v-4.2c10.57,6,23.73,13.21,31.46,23.27v1.47C28.29,74,13.61,68.09,4.45,63.35Zm.14,8.08,0,2.78c11.2,4.34,23.3,9,31.29,18.68v-1C27.47,81.07,16.61,76.73,4.59,71.43Zm0,12.81-.06-2.81A172,172,0,0,1,23.22,89a44.91,44.91,0,0,1,12.7,9.18V99C28,91.3,14.43,87.36,4.62,84.25ZM4.39,94.31l.11-2.52C9.41,92.89,14.8,94.34,20,96.07c5.75,1.87,11.31,4.14,15.9,7.77v.85c-9.16-5.5-21.46-8.22-31.52-10.37Zm.11,9.95-.06-2.44A185.06,185.06,0,0,1,24,105.53a55.71,55.71,0,0,1,12,4.31v.71c-10-3.51-21-5-31.41-6.29Zm-.11,10.2,0-2.52c10.49.57,21.17,1.45,31.49,3.63v.88Z" fill="#ff4e00" fill-rule="evenodd"/></g></g></svg>