<svg xmlns="http://www.w3.org/2000/svg" viewBox="0 0 162.57 162.57"><title>Ресурс 19</title><g id="Слой_2" data-name="Слой 2"><g id="Слой_1-2" data-name="Слой 1"><path d="M159,141.28l-33.51-33.51a68.76,68.76,0,0,0,6.69-65.71A67.29,67.29,0,0,0,95.5,5.41a68.62,68.62,0,0,0-53.43,0,68.91,68.91,0,0,0-22,14.66,68.11,68.11,0,0,0-14.66,22,68.3,68.3,0,0,0,0,53.43,67.43,67.43,0,0,0,36.62,36.62,67.39,67.39,0,0,0,26.73,5.44,66.9,66.9,0,0,0,39-12.13l33.51,33.42a11.65,11.65,0,0,0,8.79,3.71,12.51,12.51,0,0,0,8.9-21.29ZM99.69,99.69a42.11,42.11,0,0,1-30.9,12.84A42.17,42.17,0,0,1,37.87,99.69,42.17,42.17,0,0,1,25,68.77a42.11,42.11,0,0,1,12.84-30.9A42.09,42.09,0,0,1,68.8,25a42.13,42.13,0,0,1,30.9,12.87,42,42,0,0,1,12.87,30.9A42.09,42.09,0,0,1,99.69,99.69Z" fill="#333" fill-rule="evenodd"/></g></g></svg>