<svg xmlns="http://www.w3.org/2000/svg" viewBox="0 0 186.55 178.53"><title>Ресурс 5</title><g id="Слой_2" data-name="Слой 2"><g id="Слой_1-2" data-name="Слой 1"><polygon points="186.55 0 29.2 0 29.2 20.86 41.63 20.86 41.63 12.41 174.15 12.41 174.15 82.92 84.88 82.92 84.88 95.43 99.36 95.43 99.36 155.71 116.28 155.71 116.28 95.43 186.55 95.43 186.55 0" fill="#f40" fill-rule="evenodd"/><path d="M74.33,28.45H0V149.78H27.44v28.75H44.37V149.78h30Zm-11,110.33H10.87V39.32h52.5Z" fill="#00bdb0" fill-rule="evenodd"/><polygon points="155.6 48.19 155.6 66.66 115.51 66.66 115.51 74.78 163.17 74.78 163.17 48.19 155.6 48.19" fill="#00bdb0" fill-rule="evenodd"/><rect x="115.51" y="21.52" width="47.66" height="16.82" fill="#00bdb0"/></g></g></svg>