<svg xmlns="http://www.w3.org/2000/svg" viewBox="0 0 138.7 191.79"><title>Ресурс 6</title><g id="Слой_2" data-name="Слой 2"><g id="Слой_1-2" data-name="Слой 1"><path d="M126.51,77.53V55.13H110.58V43H99.35v12.1H83.42V77.53H75V34.84H61.37V12.73H43.11V0H31.89V12.73H13.63V34.84H0v157H138.7V77.53ZM94.71,66.39h20.55V77.53H94.71ZM24.89,24h25.2V34.84H24.89V24ZM63.75,77.53v103H11.25V46.06h52.5Zm63.75,103H75V88.78h52.5Z" fill="#00bdb0" fill-rule="evenodd"/><rect x="21.2" y="55.08" width="11.23" height="11.34" fill="#00bdb0"/><rect x="42.55" y="55.08" width="11.25" height="11.34" fill="#00bdb0"/><rect x="21.2" y="76.05" width="11.23" height="11.34" fill="#00bdb0"/><rect x="42.55" y="76.05" width="11.25" height="11.34" fill="#00bdb0"/><rect x="21.2" y="97.03" width="11.23" height="11.34" fill="#00bdb0"/><rect x="42.55" y="97.03" width="11.25" height="11.34" fill="#00bdb0"/><rect x="21.2" y="118.01" width="11.23" height="11.34" fill="#00bdb0"/><rect x="42.55" y="118.01" width="11.25" height="11.34" fill="#00bdb0"/><rect x="21.2" y="138.98" width="11.23" height="11.34" fill="#00bdb0"/><rect x="42.55" y="138.98" width="11.25" height="11.34" fill="#00bdb0"/><rect x="21.2" y="159.96" width="11.23" height="11.34" fill="#00bdb0"/><rect x="42.55" y="159.96" width="11.25" height="11.34" fill="#00bdb0"/><rect x="85.32" y="97.03" width="11.25" height="11.34" fill="#00bdb0"/><rect x="106.7" y="97.03" width="11.23" height="11.34" fill="#00bdb0"/><rect x="85.32" y="118.01" width="11.25" height="11.34" fill="#00bdb0"/><rect x="106.7" y="118.01" width="11.23" height="11.34" fill="#00bdb0"/><rect x="85.32" y="138.98" width="11.25" height="11.34" fill="#00bdb0"/><rect x="106.7" y="138.98" width="11.23" height="11.34" fill="#00bdb0"/><rect x="85.32" y="159.96" width="11.25" height="11.34" fill="#00bdb0"/><rect x="106.7" y="159.96" width="11.23" height="11.34" fill="#00bdb0"/></g></g></svg>