<svg xmlns="http://www.w3.org/2000/svg" viewBox="0 0 96.75 96.75"><title>Ресурс 14</title><g id="Слой_2" data-name="Слой 2"><g id="Слой_1-2" data-name="Слой 1"><path d="M56.95,48.36l8.53-8.56a3,3,0,0,0,0-4.28l-4.25-4.28a3,3,0,0,0-4.28,0L48.39,39.8l-8.56-8.56a3.06,3.06,0,0,0-4.28,0l-4.25,4.28a3,3,0,0,0,0,4.28l8.53,8.56-8.53,8.53a3,3,0,0,0,0,4.25l4.28,4.28a3,3,0,0,0,4.28,0l8.53-8.53L57,65.51a3.06,3.06,0,0,0,4.28,0l4.28-4.28a3,3,0,0,0,0-4.28ZM48.39,0A48.37,48.37,0,1,0,96.75,48.39,48.38,48.38,0,0,0,48.39,0Zm0,87.68A39.3,39.3,0,1,1,87.68,48.39,39.29,39.29,0,0,1,48.39,87.68Z" fill="#ee4c48" fill-rule="evenodd"/></g></g></svg>