<svg xmlns="http://www.w3.org/2000/svg" viewBox="0 0 146.41 183.34"><title>Ресурс 16</title><g id="Слой_2" data-name="Слой 2"><g id="Слой_1-2" data-name="Слой 1"><path d="M123.87,57.37l8-11.31a4.52,4.52,0,0,0-1.08-6.35l-12.08-8.56a4.57,4.57,0,0,0-6.35,1.08l-8.22,11.59a72.34,72.34,0,0,0-19.39-6V33.17a5.5,5.5,0,0,1,5.5-5.5h3a5.5,5.5,0,0,0,5.47-5.5V5.47A5.49,5.49,0,0,0,93.29,0H53.15a5.5,5.5,0,0,0-5.5,5.47v16.7a5.5,5.5,0,0,0,5.5,5.5h3a5.5,5.5,0,0,1,5.47,5.5v4.71A72.35,72.35,0,0,0,41,44.45L32.83,33a4.52,4.52,0,0,0-6.35-1.08L14.4,40.42a4.58,4.58,0,0,0-1.08,6.38l8.19,11.57a73.21,73.21,0,1,0,102.36-1ZM73.22,165.8a55.63,55.63,0,1,1,55.62-55.64A55.7,55.7,0,0,1,73.22,165.8Z" fill="#333" fill-rule="evenodd"/><path d="M40.59,137.45a41.05,41.05,0,0,1,5.36-57.54l.26-.23,26.11,31.24,26.53,31.72-.23.23a41.09,41.09,0,0,1-57.83-5.16c-.06-.09-.14-.17-.2-.26Z" fill="#f40" fill-rule="evenodd"/></g></g></svg>