<svg xmlns="http://www.w3.org/2000/svg" viewBox="0 0 176.09 128.41"><title>Ресурс 25</title><g id="Слой_2" data-name="Слой 2"><g id="Слой_1-2" data-name="Слой 1"><polygon points="38.41 13.07 32.74 13.07 32.74 31.32 44.08 31.32 44.08 24.41 164.75 24.41 164.75 88.58 113.64 88.58 113.64 88.81 113.61 88.81 113.61 127.93 129 127.93 129 99.92 176.09 99.92 176.09 13.07 38.41 13.07" fill="#f40" fill-rule="evenodd"/><rect x="136.2" y="33.53" width="21.71" height="7.29" fill="#00bdb0"/><rect x="136.2" y="53.04" width="21.71" height="7.29" fill="#00bdb0"/><rect x="136.2" y="72.57" width="21.71" height="7.26" fill="#00bdb0"/><rect x="130.17" width="12.08" height="9.13" fill="#00bdb0"/><rect x="67.55" width="12.08" height="9.13" fill="#00bdb0"/><path d="M118,64.66H102.36V59.84a4.11,4.11,0,0,0-4.11-4.11H87.39V53.38a4.11,4.11,0,0,0-4.11-4.11H71.72V46.91a4.11,4.11,0,0,0-4.11-4.11H26A26,26,0,0,0,24.6,94.7v29.6a4.11,4.11,0,0,0,4.11,4.11h24.6a4.11,4.11,0,0,0,4.11-4.11V94.73H67.61a4.11,4.11,0,0,0,4.11-4.11V88.3H83.28a4.14,4.14,0,0,0,4.11-4.14V81.84H98.25a4.12,4.12,0,0,0,4.11-4.14V72.91H118a4.12,4.12,0,0,0,0-8.25Zm-68.85,55.5H32.85V94.73H49.18ZM63.47,86.49H26a17.72,17.72,0,1,1,0-35.43h37.5Zm15.68-6.43H71.72V57.51h7.43Zm15-11.56c0,.09,0,.18,0,.28s0,.18,0,.28v4.54H87.39V63.95h6.75Z" fill="#00bdb0" fill-rule="evenodd"/><path d="M49.89,57.37a4.12,4.12,0,0,0-4.14,4.11V75.91a4.12,4.12,0,1,0,8.25,0V61.48a4.11,4.11,0,0,0-4.11-4.11Z" fill="#00bdb0" fill-rule="evenodd"/><path d="M24.18,57.37a4.11,4.11,0,0,0-4.11,4.11V75.91a4.12,4.12,0,1,0,8.25,0V61.48a4.14,4.14,0,0,0-4.14-4.11Z" fill="#00bdb0" fill-rule="evenodd"/><path d="M37.25,57.37a4.12,4.12,0,0,0-4.14,4.11V75.91a4.12,4.12,0,1,0,8.25,0V61.48a4.11,4.11,0,0,0-4.11-4.11Z" fill="#00bdb0" fill-rule="evenodd"/></g></g></svg>