<svg xmlns="http://www.w3.org/2000/svg" viewBox="0 0 143.35 163.64"><title>Ресурс 24</title><g id="Слой_2" data-name="Слой 2"><g id="Слой_1-2" data-name="Слой 1"><polygon points="5.67 13.1 143.35 13.1 143.35 99.95 97.94 99.95 97.94 88.61 132.01 88.61 132.01 24.43 11.34 24.43 11.34 88.61 40.68 88.61 40.68 99.95 0 99.95 0 13.1 5.67 13.1" fill="#00bdb0"/><rect x="97.43" width="12.1" height="9.16" fill="#f40"/><rect x="34.81" width="12.1" height="9.16" fill="#f40"/><polygon points="63.33 80.11 56.89 94.08 55.56 163.64 80.28 163.64 81.61 93.77 76.45 80.11 63.33 80.11" fill="#f40" fill-rule="evenodd"/><path d="M37.11,40.56V62.79H51.93V57.86h9.89V72.68H79.11V63c0-4.71,7.51-6,11.68-6,6.66,0,12,3.66,15.56,5.9s6.49-3,3.49-6.89S94.56,40.56,79.11,40.56H61.82V45.5H51.93V40.56Z" fill="#f40" fill-rule="evenodd"/></g></g></svg>