<svg xmlns="http://www.w3.org/2000/svg" viewBox="0 0 162.37 147.68"><title>Ресурс 22</title><g id="Слой_2" data-name="Слой 2"><g id="Слой_1-2" data-name="Слой 1"><path d="M156.33,6a20.48,20.48,0,0,0-14.51-6H20.55A20.61,20.61,0,0,0,0,20.58v39.8a6.39,6.39,0,0,0,6.38,6.38h6.38v68.17H5.67v12.76h27V134.93H25.51V66.76H37.42V124a6.44,6.44,0,0,0,1.84,4.51h0a6.34,6.34,0,0,0,4.51,1.87H81.18A43.79,43.79,0,0,0,125,86.54V66.76h11.88v68.17h-7.09v12.76h27V134.93h-7.09V66.76H156a6.39,6.39,0,0,0,6.38-6.38V20.58A20.43,20.43,0,0,0,156.33,6ZM112.2,83.76A30.6,30.6,0,0,1,103.41,89a31.27,31.27,0,0,1-11.28,2.1A6.34,6.34,0,0,0,87.62,93a6.41,6.41,0,0,0-1.87,4.51,30.81,30.81,0,0,1-7.34,20.07H50.17V48h62Zm-17,30.44c.37-.91.71-1.81,1-2.75a43.33,43.33,0,0,0,1.87-8,47.17,47.17,0,0,0,8-1.87c.94-.31,1.87-.65,2.78-1a31.27,31.27,0,0,1-13.63,13.63ZM28.46,34V48h9v6H12.76V20.58a7.84,7.84,0,0,1,7.8-7.82H141.82a7.84,7.84,0,0,1,7.8,7.82V54H125V48h7.11V34Z" fill="#00bdb0"/><rect x="97.2" y="18.06" width="32.51" height="10.18" fill="#f40"/><rect x="57.06" y="55.25" width="47.99" height="10.18" fill="#f40"/><rect x="30.27" y="18.06" width="10.86" height="10.18" fill="#f40"/></g></g></svg>