<svg xmlns="http://www.w3.org/2000/svg" viewBox="0 0 100.06 80.05"><title>Ресурс 20</title><g id="Слой_2" data-name="Слой 2"><g id="Слой_1-2" data-name="Слой 1"><path d="M50,30A15,15,0,1,0,65,45,15,15,0,0,0,50,30Zm40-15H78a4.44,4.44,0,0,1-3.94-2.83L71,2.83A4.44,4.44,0,0,0,67,0H33a4.47,4.47,0,0,0-4,2.83L26,12.16A4.47,4.47,0,0,1,22,15H10A10,10,0,0,0,0,25V70a10,10,0,0,0,10,10H90.06a10,10,0,0,0,10-10V25a10,10,0,0,0-10-10ZM50,70A25,25,0,1,1,75,45,25,25,0,0,1,50,70ZM86.54,32a3.5,3.5,0,1,1,3.52-3.51A3.49,3.49,0,0,1,86.54,32Z" fill="#333" fill-rule="evenodd"/></g></g></svg>