<?xml version="1.0" encoding="UTF-8"?>
<!DOCTYPE svg PUBLIC "-//W3C//DTD SVG 1.1//EN" "http://www.w3.org/Graphics/SVG/1.1/DTD/svg11.dtd">
<!-- Creator: CorelDRAW X7 -->
<svg xmlns="http://www.w3.org/2000/svg" xml:space="preserve" width="42.1672mm" height="42.1672mm" version="1.1" style="shape-rendering:geometricPrecision; text-rendering:geometricPrecision; image-rendering:optimizeQuality; fill-rule:evenodd; clip-rule:evenodd"
viewBox="0 0 1030 1030"
 xmlns:xlink="http://www.w3.org/1999/xlink">
 <defs>
  <style type="text/css">
   <![CDATA[
    .fil1 {fill:#1A1A1A}
    .fil0 {fill:#FF6200}
   ]]>
  </style>
 </defs>
 <g id="Слой_x0020_1">
  <metadata id="CorelCorpID_0Corel-Layer"/>
  <rect class="fil0" x="633" y="459" width="173.409" height="75.8653"/>
  <g id="_2193921140752">
   <g>
    <path class="fil1" d="M909 320l-102 0 0 -320 -584 0 0 320 -102 0c-67,0 -121,54 -121,121l0 326c0,66 54,120 121,120l102 0 0 143 584 0 0 -143 102 0c67,0 121,-54 121,-120l0 -326c0,-67 -54,-121 -121,-121zm-605 -240l422 0 0 240 -422 0 0 -240zm-81 727l-102 0c-22,0 -41,-18 -41,-40l0 -85 143 0 0 125zm503 143l-422 0 0 -268 422 0 0 268zm224 -183c0,22 -18,40 -41,40l-102 0 0 -125 143 0 0 85zm0 -165l-870 0 0 -161c0,-23 19,-41 41,-41l788 0c23,0 41,18 41,41l0 161z"/>
   </g>
  </g>
  <rect class="fil0" x="364" y="750" width="302.806" height="75.8653"/>
  <rect class="fil0" x="364" y="131" width="302.806" height="75.8653"/>
 </g>
</svg>
