<svg xmlns="http://www.w3.org/2000/svg" viewBox="0 0 154.54 143.57"><title>Ресурс 4</title><g id="Слой_2" data-name="Слой 2"><g id="Слой_1-2" data-name="Слой 1"><path d="M122.74,80a31.8,31.8,0,1,0,31.8,31.8A31.84,31.84,0,0,0,122.74,80Zm0,55.73a23.92,23.92,0,1,1,23.92-23.92A23.94,23.94,0,0,1,122.74,135.69Z" fill="#00bdb0"/><path d="M137.65,109.81H126.42V98.56a4,4,0,1,0-7.91,0v15.19a3.94,3.94,0,0,0,3.94,3.94h15.19a3.94,3.94,0,1,0,0-7.88Z" fill="#f40"/><path d="M70.58,52.5H26.82v60.8H70.58V75.57H110V52.5H70.58Zm19.7,4.2h15.34V71.38H90.28Zm-39.4,0H66.22V71.38H50.88Zm-19.7,0H46.52V71.38H31.18Zm0,18.88H46.52V90.23H31.18Zm15.34,33.53H31.18V94.42H46.52Zm19.7,0H50.88V94.42H66.22Zm0-18.88H50.88V75.57H66.22Zm19.7-18.85H70.58V56.69H85.92Z" fill="#00bdb0" stroke="#00bdb0" stroke-miterlimit="10" stroke-width="2.83" fill-rule="evenodd"/><path d="M0,0V139.92H89.24V129.17H10.72V36.06H126.65V69h10.72V0ZM10.72,25.31V10.74H126.65V25.31Z" fill="#f40"/></g></g></svg>