<svg xmlns="http://www.w3.org/2000/svg" viewBox="0 0 151.43 115.46"><title>Ресурс 2</title><g id="Слой_2" data-name="Слой 2"><g id="Слой_1-2" data-name="Слой 1"><polygon points="53.04 36.51 0 36.51 9.87 48.67 53.04 48.67 53.04 36.51" fill="#f40" fill-rule="evenodd"/><polygon points="53.04 56.72 13.38 56.72 23.24 68.85 53.04 68.85 53.04 56.72" fill="#f40" fill-rule="evenodd"/><path d="M145.36,0H32.57V25.91H44.7V17.52L92.18,49.61l47.11-32.09V78.89H32.4V91H52.7v24.43H65.11V91h51.48v24.43H129V91h22.42V0ZM92,34.89,58.42,12.13H125.6Z" fill="#00bdb0" fill-rule="evenodd"/><polygon points="120.9 46.94 120.61 60.21 109.7 60.49 102.9 71.21 131.33 71.21 131.33 40.71 120.9 46.94" fill="#00bdb0" fill-rule="evenodd"/></g></g></svg>