<?xml version="1.0" encoding="UTF-8"?>
<!DOCTYPE svg PUBLIC "-//W3C//DTD SVG 1.1//EN" "http://www.w3.org/Graphics/SVG/1.1/DTD/svg11.dtd">
<!-- Creator: CorelDRAW X7 -->
<svg xmlns="http://www.w3.org/2000/svg" xml:space="preserve" width="22.4464mm" height="22.4464mm" version="1.1" style="shape-rendering:geometricPrecision; text-rendering:geometricPrecision; image-rendering:optimizeQuality; fill-rule:evenodd; clip-rule:evenodd"
viewBox="0 0 1943 1943"
 xmlns:xlink="http://www.w3.org/1999/xlink">
 <defs>
  <style type="text/css">
   <![CDATA[
    .fil0 {fill:url(#id0)}
    .fil1 {fill:url(#id1)}
   ]]>
  </style>
  <linearGradient id="id0" gradientUnits="userSpaceOnUse" x1="1638.66" y1="1152.72" x2="46.6219" y2="276.944">
   <stop offset="0" style="stop-opacity:1; stop-color:#FF4400"/>
   <stop offset="1" style="stop-opacity:1; stop-color:#FF7B00"/>
  </linearGradient>
  <linearGradient id="id1" gradientUnits="userSpaceOnUse" xlink:href="#id0" x1="1437.25" y1="865.912" x2="859.289" y2="547.974">
  </linearGradient>
 </defs>
 <g id="Слой_x0020_1">
  <metadata id="CorelCorpID_0Corel-Layer"/>
  <path class="fil0" d="M285 285c176,-176 419,-285 687,-285 268,0 511,109 686,285 176,176 285,419 285,687 0,268 -109,511 -285,686 -175,176 -418,285 -686,285 -268,0 -511,-109 -687,-285 -176,-175 -285,-418 -285,-686 0,-268 109,-511 285,-687zm170 1203c133,132 315,214 517,214 201,0 384,-82 516,-214 132,-132 214,-315 214,-516 0,-202 -82,-384 -214,-517 -132,-132 -315,-214 -516,-214 -202,0 -384,82 -517,214 -132,133 -214,315 -214,517 0,201 82,384 214,516z"/>
  <path class="fil1" d="M1084 912l343 0c34,0 64,13 86,35l-1 0c22,22 36,52 36,85 0,33 -14,64 -35,85l-1 1c-22,21 -52,35 -85,35l-464 0c-33,0 -63,-14 -85,-35l0 0c-22,-22 -36,-52 -36,-86l0 -464c0,-33 14,-63 36,-85 22,-22 52,-36 85,-36 33,0 64,14 85,36 22,22 36,52 36,85l0 344z"/>
 </g>
</svg>
