<svg xmlns="http://www.w3.org/2000/svg" viewBox="0 0 170.62 183.1"><title>Ресурс 7</title><g id="Слой_2" data-name="Слой 2"><g id="Слой_1-2" data-name="Слой 1"><path d="M111.66,47.82,58.37,63.52C39.06,57.8,19.53,51.42,0,46.66L.09,163.87l58.73,17.49,52-15.45a4.64,4.64,0,0,0,1.08.11,4.81,4.81,0,0,0,1.08-.11L170.6,183.1l0-118Zm5.75,54.79V60.83L159.7,73.39v41.75Zm0,53.23V114.07L159.7,126.6v41.78ZM64.18,115.14V73.39l42.29-12.56v41.78Zm0,53.23V126.6l42.29-12.53v41.78Zm-10.94,0L10.94,155.85V112.72l42.29,12Zm0-54.85L10.94,101l.43-40.45L53.23,72.71Z" fill="#00bdb0"/><path d="M82.18,17.66A17.66,17.66,0,1,0,99.84,35.32,17.68,17.68,0,0,0,82.18,17.66ZM82.18,0a35.32,35.32,0,0,0-30,53.89l28,45.18a2.9,2.9,0,0,0,2.49,1.39h0A2.89,2.89,0,0,0,85.18,99L112.51,53.4A35.31,35.31,0,0,0,82.18,0Z" fill="#f40" fill-rule="evenodd"/></g></g></svg>