<svg xmlns="http://www.w3.org/2000/svg" viewBox="0 0 154.8 156.95"><title>Ресурс 8</title><g id="Слой_2" data-name="Слой 2"><g id="Слой_1-2" data-name="Слой 1"><path d="M68.4,43.85A12.84,12.84,0,0,1,60,31.52a14.47,14.47,0,0,1,4.65-11c3.09-2.92,7.51-4.37,13.21-4.37S87.87,17.57,91,20.49a14.42,14.42,0,0,1,4.71,11,13.11,13.11,0,0,1-2.18,7.4,13.49,13.49,0,0,1-6.07,4.93A16.08,16.08,0,0,1,95,49.69a15.38,15.38,0,0,1,2.58,8.84c0,5.53-1.73,10-5.24,13.46s-8.16,5.19-14,5.19q-8.12,0-13.52-4.28Q58.45,67.85,58.45,59a17,17,0,0,1,2.41-8.9,15.36,15.36,0,0,1,7.54-6.26Zm2.38-11.51a7.14,7.14,0,0,0,1.93,5.36,7.79,7.79,0,0,0,10.29,0,7.24,7.24,0,0,0,2-5.36A7,7,0,0,0,83,27.16a6.84,6.84,0,0,0-5.07-2,6.69,6.69,0,0,0-7.17,7.14ZM69.7,57.94c0,3.17.79,5.64,2.41,7.43a7.83,7.83,0,0,0,6,2.66A7.55,7.55,0,0,0,84,65.45c1.56-1.7,2.32-4.17,2.32-7.4a9.66,9.66,0,0,0-2.35-6.77,7.73,7.73,0,0,0-6-2.58,7.06,7.06,0,0,0-6.24,2.92,10.71,10.71,0,0,0-2,6.32Z" fill="#f40"/><path d="M34.36,63.24c-10.77-.11-19.25-2.3-25.11-7.6C3.2,50.2,0,41.56,0,28.57A4.8,4.8,0,0,1,1.39,25.2h0a4.86,4.86,0,0,1,3.37-1.39H26.59V17c0-2.66,0-4,0-5.13s.11-2.21.26-4.11c.11-1.5.28-3.54.48-6.41L27.44,0h99.92l.09,1.33c.2,2.86.37,4.9.48,6.41.14,1.9.23,2.86.26,4.11s0,2.47,0,5.13c0,1.64,0,3.83,0,6.83h21.83a4.74,4.74,0,0,1,3.34,1.39h0a4.8,4.8,0,0,1,1.39,3.37c0,13-3.17,21.63-9.24,27.07-5.87,5.3-14.31,7.48-25.11,7.6q-.6,1.11-1.28,2.47c-4.28,8.5-11.74,23.16-27.18,29v22.9h2.13a15.51,15.51,0,0,1,10.66,4.71,23.07,23.07,0,0,1,6.12,10.35h7a4.62,4.62,0,0,1,3.34,1.39h0a4.65,4.65,0,0,1,1.42,3.34v14.77a4.65,4.65,0,0,1-1.42,3.34h0a4.65,4.65,0,0,1-3.34,1.42h-81a4.65,4.65,0,0,1-3.34-1.42h0a4.62,4.62,0,0,1-1.39-3.34V137.42a4.74,4.74,0,0,1,4.73-4.73h7a22.57,22.57,0,0,1,6.12-10.35,15.39,15.39,0,0,1,10.63-4.71h2.13V94.73c-15.45-5.87-22.88-20.52-27.18-29q-.68-1.36-1.28-2.47Zm1.9-54.62c-.09,2-.14,4.08-.14,6.24,0,13.95,2.07,31.38,7.65,45.72,5.5,14.09,14.37,25.17,28,26.84a31,31,0,0,0,3.69.23H76l.77,0v-.06l.65,0,.62,0v.06l.77,0h.54A31,31,0,0,0,83,87.42c13.63-1.67,22.54-12.76,28-26.84,5.58-14.34,7.65-31.78,7.65-45.72,0-2.15-.06-4.25-.14-6.24ZM78,97.11v.09l-.62-.06-.65.06v-.09l-4.45-.23v20.75H82.49V96.89Zm0,30H60.69a5.7,5.7,0,0,0-3.83,1.9,14.3,14.3,0,0,0-2.72,3.66h46.52A14.83,14.83,0,0,0,98,129a5.85,5.85,0,0,0-3.86-1.87Zm0,15.05H41.67v5.24h71.46v-5.24ZM139,47.74c3.26-3.29,5.36-8.08,6-14.43H126.74c-.43,2.1-.77,4.2-1.08,6.26-.74,4.79-1.45,9.41-3.32,13.63h1.59c6.24,0,11.4-1.81,15.05-5.47ZM9.84,33.31c.62,6.35,2.72,11.14,6,14.43,3.66,3.66,8.82,5.47,15.08,5.47h1.56c-1.84-4.22-2.58-8.84-3.32-13.63-.31-2.07-.62-4.17-1-6.26Z" fill="#00bdb0"/></g></g></svg>