<svg xmlns="http://www.w3.org/2000/svg" viewBox="0 0 143.35 162.48"><title>Ресурс 23</title><g id="Слой_2" data-name="Слой 2"><g id="Слой_1-2" data-name="Слой 1"><polygon points="5.67 13.07 143.35 13.07 143.35 99.92 106.04 99.92 106.04 88.58 132.01 88.58 132.01 24.41 11.34 24.41 11.34 88.58 37.3 88.58 37.3 99.92 0 99.92 0 13.07 5.67 13.07" fill="#00bdb0"/><rect x="88.98" y="32.66" width="35.06" height="15.36" fill="#f40"/><rect x="19.56" y="32.66" width="31.1" height="5.87" fill="#f40"/><rect x="19.56" y="44.59" width="22.42" height="5.87" fill="#f40"/><rect x="97.43" width="12.08" height="9.13" fill="#f40"/><rect x="34.81" width="12.08" height="9.13" fill="#f40"/><path d="M92.72,84.84c-.14-1-7.63-13.24-8.33-14.57L72.91,50.77l-.57-.6-.28.28c-.45,1.59-4.71,7.82-5.9,9.84L54.28,79.8c-3.37,5.64-2.64,3.17-2.81,9.72-.43,62.11-.09-.94-.85,72.2v.77h41l0-.94Zm-8.31,5c-1.45-.57-6,.11-8-.17-.28,1.13-.82,47.68-.82,48.25l8.14.06Zm-16.55-.09-8-.2L59.19,138c1.62-.11,7.11.2,8.14-.23-.14-1.59.6-33,.65-44.65a8.09,8.09,0,0,0-.11-3.32Zm15.82,56.64c-.88-.31-21.63-.28-24.55-.31l0,8.14,18.28.11c1.3.14,5.22.31,6.24-.11ZM72.37,66.27c-1.45,1.73-5.41,8.53-7,11.28a36.33,36.33,0,0,0-2.07,3.77l18,.11Z" fill="#f40" fill-rule="evenodd"/></g></g></svg>