<svg xmlns="http://www.w3.org/2000/svg" viewBox="0 0 136.09 193.53"><title>Ресурс 15</title><g id="Слой_2" data-name="Слой 2"><g id="Слой_1-2" data-name="Слой 1"><path d="M68,0A68.09,68.09,0,0,0,0,68a67.08,67.08,0,0,0,10.2,35.72l53.23,87.11a5.37,5.37,0,0,0,3.86,2.61,5.64,5.64,0,0,0,5.78-2.72l53.38-87.9A67.09,67.09,0,0,0,136.09,68,68.09,68.09,0,0,0,68,0Zm0,102a34,34,0,1,1,34-34,34,34,0,0,1-34,34Z" fill="#ffb600" fill-rule="evenodd"/><path d="M68,0V34a34,34,0,1,1,0,68v91.47a5.58,5.58,0,0,0,5-2.78l53.38-87.9A67.09,67.09,0,0,0,136.09,68,68.09,68.09,0,0,0,68,0Z" fill="#ff6700" fill-rule="evenodd"/></g></g></svg>