<svg xmlns="http://www.w3.org/2000/svg" viewBox="0 0 153.6 160.81"><title>Ресурс 12</title><g id="Слой_2" data-name="Слой 2"><g id="Слой_1-2" data-name="Слой 1"><path d="M150.17,40.16l-.06-.23C136.87-13.33,16.71-13.3,3.5,39.94l-.06.23a146.1,146.1,0,0,0,0,63.07l.06.2c3.54,14.37,19,29.68,33.79,33.9v16.75a6.7,6.7,0,0,0,11.57,4.62l17-17.6c3.66.2,7.31.31,11.06.31,28.35,0,65-4.11,73.3-38l.06-.2a147.62,147.62,0,0,0-.06-63Zm-13.41,60c-6.86,27-42.77,28-65,27.38a1,1,0,0,0-.71.31c-1.9,1.93-12.39,12.67-12.39,12.67L45.48,154a1.53,1.53,0,0,1-2.64-1V125.29a.9.9,0,0,0-.77-.94h0C32,122.11,19.32,110,16.82,100.17a133.31,133.31,0,0,1,0-57C26.57,4.93,127,4.93,136.76,43.17a132.42,132.42,0,0,1,0,57Z" fill="#63308a" fill-rule="evenodd"/><path d="M98.69,113a32.77,32.77,0,0,1-4.37-1.39c-14.2-5.9-27.3-13.49-37.67-25.14a97.15,97.15,0,0,1-14.43-22c-1.81-3.77-3.4-7.65-5-11.57-1.42-3.51.68-7.17,2.95-9.89a22.75,22.75,0,0,1,7.74-5.78c2.3-1.13,4.54-.45,6.24,1.47a80.9,80.9,0,0,1,9.61,13.49c1.67,3,1.22,6.66-1.79,8.7-.71.51-1.36,1.08-2.07,1.62a6.24,6.24,0,0,0-1.59,1.64,4.54,4.54,0,0,0-.31,4c3.71,10.18,9.92,18.06,20.15,22.34,1.64.68,3.26,1.47,5.19,1.28,3.17-.34,4.2-3.83,6.43-5.64a6,6,0,0,1,7.29-.31c2.32,1.47,4.56,3.06,6.8,4.68s4.39,3.12,6.43,4.9,2.64,4,1.5,6.29a21.52,21.52,0,0,1-9.16,10.15,22.45,22.45,0,0,1-4,1.22c-1.53-.45,1.39-.4,0,0Z" fill="#63308a" fill-rule="evenodd"/><path d="M76.8,32.31c18.57.51,33.85,12.87,37.11,31.27.57,3.15.77,6.32,1,9.52a2.27,2.27,0,0,1-2.1,2.64c-1.47,0-2.13-1.22-2.24-2.55-.2-2.64-.28-5.3-.71-7.94A33.22,33.22,0,0,0,83.15,37.5c-2.07-.34-4.17-.45-6.29-.71-1.33-.14-3.06-.2-3.37-1.87a2.24,2.24,0,0,1,2.24-2.55,3.45,3.45,0,0,1,1.08-.06c18.62.51-.37,0,0,0Z" fill="#63308a" fill-rule="evenodd"/><path d="M105.07,68.91a8.16,8.16,0,0,1-.23,1.28,2.1,2.1,0,0,1-4,.2,5.16,5.16,0,0,1-.2-1.76,22.43,22.43,0,0,0-2.83-11.31A21,21,0,0,0,89,49.06a24.93,24.93,0,0,0-7-2.13c-1.08-.17-2.13-.31-3.2-.43a2.07,2.07,0,0,1-1.93-2.3,2,2,0,0,1,2.24-2,29.67,29.67,0,0,1,12.16,3.17c7.68,4.05,12.1,10.52,13.38,19.13.06.4.17.77.2,1.16.11,1,.17,1.93.23,3.2,0,.26-.06-1.28,0,0Z" fill="#63308a" fill-rule="evenodd"/><path d="M93.5,68.45a2.25,2.25,0,0,1-2.55-2.24,20,20,0,0,0-.45-2.95,8.34,8.34,0,0,0-3.12-4.85,8.5,8.5,0,0,0-2.49-1.22c-1.11-.28-2.32-.26-3.46-.51a2.11,2.11,0,0,1-1.73-2.44A2.21,2.21,0,0,1,82,52.47c7.23.51,12.36,4.22,13.07,12.73a6.28,6.28,0,0,1,0,1.79,1.75,1.75,0,0,1-1.62,1.47c-1.53.06.71-.06,0,0Z" fill="#63308a" fill-rule="evenodd"/></g></g></svg>