<svg xmlns="http://www.w3.org/2000/svg" viewBox="0 0 141.46 142.6"><title>Ресурс 11</title><g id="Слой_2" data-name="Слой 2"><g id="Слой_1-2" data-name="Слой 1"><path d="M67.27.08A70.88,70.88,0,0,0,0,70.95a70.06,70.06,0,0,0,7.71,31.89L.2,139.29a2.75,2.75,0,0,0,3.34,3.23l35.72-8.45a70.73,70.73,0,1,0,28-134ZM109.9,109.9a55.36,55.36,0,0,1-63.81,10.46l-5-2.47L19.19,123l4.62-22.37-2.47-4.79A55.54,55.54,0,0,1,31.58,31.6,55.37,55.37,0,1,1,109.9,109.9Z" fill="#00bdb0" fill-rule="evenodd"/><path d="M105.05,86.08,91.33,82.17a5.11,5.11,0,0,0-5,1.33l-3.34,3.4a5,5,0,0,1-5.41,1.16C71,85.43,57.4,73.33,53.92,67.26a4.94,4.94,0,0,1,.43-5.53L57.26,58a5.05,5.05,0,0,0,.62-5.19l-5.78-13a5.09,5.09,0,0,0-8-1.84c-3.83,3.26-8.36,8.16-8.9,13.61-1,9.58,3.15,21.69,18.71,36.23,18,16.78,32.4,19,41.75,16.75,5.33-1.3,9.58-6.46,12.25-10.69a5.14,5.14,0,0,0-2.89-7.71Z" fill="#00bdb0" fill-rule="evenodd"/></g></g></svg>